<?xml version="1.0" encoding="UTF-8"?>
<svg xmlns="http://www.w3.org/2000/svg"
     xmlns:xlink="http://www.w3.org/1999/xlink"
     version="1.2"
     width="150mm" height="150mm" viewBox="0 0 150 150"
     stroke="none"
     fill="#000000"
     stroke-width="0.3"
     font-size="3.88"
>
<defs>
  <marker id="arrow" markerWidth="15" markerHeight="7" refX="5" refY="3.5" orient="auto" markerUnits="strokeWidth">
    <path d="M0,0 L15,3.5 L0,7 z" stroke="context-stroke" fill="context-stroke"/>
  </marker>
</defs>
<g font-size="5.64" stroke="#000000" id="img-72566e6f-1">
  <g transform="translate(120,95)">
    <g class="primitive">
      <text text-anchor="middle" dy="0.35em">first-last crossing</text>
    </g>
  </g>
  <g fill="#000000" fill-opacity="0.000" stroke="#000000" marker-end="url(#arrow)" id="img-72566e6f-2">
    <g stroke="#FF0000" id="img-72566e6f-3">
      <g transform="translate(85,95)">
        <path fill="none" d="M5,0 L-5,0 " class="primitive"/>
      </g>
    </g>
  </g>
  <g fill="#0000FF" id="img-72566e6f-4">
    <g transform="translate(85,30)">
      <circle cx="0" cy="0" r="1" class="primitive"/>
    </g>
  </g>
  <g fill="#0000FF" id="img-72566e6f-5">
    <g transform="translate(77.5,30)">
      <circle cx="0" cy="0" r="1" class="primitive"/>
    </g>
  </g>
  <g fill="#0000FF" id="img-72566e6f-6">
    <g transform="translate(70,30)">
      <circle cx="0" cy="0" r="1" class="primitive"/>
    </g>
  </g>
  <g stroke-width="1" stroke="#000000" id="img-72566e6f-7">
    <g transform="translate(85,20)">
      <path fill="none" d="M-25,0 L25,0 " class="primitive"/>
    </g>
    <g transform="translate(110,45)">
      <path fill="none" d="M0,-25 L0,25 " class="primitive"/>
    </g>
    <g transform="translate(60,95)">
      <path fill="none" d="M50,-25 L-50,25 " class="primitive"/>
    </g>
    <g transform="translate(35,20)">
      <path fill="none" d="M25,0 L-25,-0 " class="primitive"/>
    </g>
    <g transform="translate(10,45)">
      <path fill="none" d="M0,-25 L-0,25 " class="primitive"/>
    </g>
    <g transform="translate(33.66,81.83)">
      <path fill="none" d="M-23.66,-11.83 L23.66,11.83 " class="primitive"/>
    </g>
    <g transform="translate(86.34,108.17)">
      <path fill="none" d="M-23.66,-11.83 L23.66,11.83 " class="primitive"/>
    </g>
    <g stroke-width="1" stroke="#0000FF" id="img-72566e6f-8">
      <g transform="translate(60,12)">
        <path fill="none" d="M0,5 L0,-5 " class="primitive"/>
      </g>
      <g transform="translate(60,28)">
        <path fill="none" d="M0,-5 L0,5 " class="primitive"/>
      </g>
    </g>
  </g>
</g>
</svg>
